<svg width="1024" height="1024" viewBox="0 0 1024 1024" fill="none" xmlns="http://www.w3.org/2000/svg">
<path fill-rule="evenodd" clip-rule="evenodd" d="M27.9023 139.778C0 194.54 0 266.227 0 409.6V614.4C0 757.773 0 829.46 27.9023 884.222C52.4459 932.391 91.6089 971.554 139.778 996.098C194.54 1024 266.227 1024 409.6 1024H614.4C757.773 1024 829.46 1024 884.222 996.098C932.391 971.554 971.554 932.391 996.098 884.222C1024 829.46 1024 757.773 1024 614.4V409.6C1024 266.227 1024 194.54 996.098 139.778C971.554 91.6089 932.391 52.4459 884.222 27.9023C829.46 0 757.773 0 614.4 0H409.6C266.227 0 194.54 0 139.778 27.9023C91.6089 52.4459 52.4459 91.6089 27.9023 139.778ZM587.429 352H851.588C858.443 352 864 357.985 864 365.367V501.094C864 508.477 858.443 514.462 851.588 514.462H644.483L461.714 704H172.412C165.557 704 160 698.015 160 690.633V554.906C160 547.523 165.557 541.538 172.412 541.538H404.659L587.429 352Z" fill="#2B4162"/>
</svg>
